<svg width="1000" height="1000" viewBox="0 0 1000 1000" xmlns="http://www.w3.org/2000/svg">
  <path fill="#0F3846" d="M500 150
    C 660 150, 740 320, 660 520
    C 620 620, 520 610, 490 560
    C 480 540, 495 515, 520 525
    C 610 560, 675 400, 625 260
    C 570 140, 400 130, 340 280
    C 310 360, 325 440, 365 455
    C 385 462, 392 435, 380 410
    C 335 320, 375 200, 500 150
    M 485 280
    C 510 275, 518 305, 500 340
    C 430 470, 380 720, 330 780
    C 310 800, 330 830, 360 825
    C 410 815, 460 680, 510 360
    C 520 300, 500 278, 485 280
    Z" />
</svg>
